<svg xmlns="http://www.w3.org/2000/svg" xmlns:xlink="http://www.w3.org/1999/xlink" width="500" zoomAndPan="magnify" viewBox="0 0 375 374.999991" height="500" preserveAspectRatio="xMidYMid meet" version="1.0"><defs><g/></defs><g fill="#ffd700" fill-opacity="1"><g transform="translate(37.500002, 352.08973)"><g><path d="M 289.671875 -157.78125 C 289.671875 -107.257812 275.765625 -68.332031 247.953125 -41 C 220.140625 -13.664062 181.039062 0 130.65625 0 L 32.71875 0 L 32.71875 -302.71875 L 137.484375 -302.71875 C 186.078125 -302.71875 223.585938 -290.296875 250.015625 -265.453125 C 276.453125 -240.609375 289.671875 -204.71875 289.671875 -157.78125 Z M 204.78125 -154.875 C 204.78125 -182.625 199.289062 -203.191406 188.3125 -216.578125 C 177.34375 -229.972656 160.675781 -236.671875 138.3125 -236.671875 L 114.5 -236.671875 L 114.5 -67.09375 L 132.734375 -67.09375 C 157.578125 -67.09375 175.796875 -74.300781 187.390625 -88.71875 C 198.984375 -103.144531 204.78125 -125.195312 204.78125 -154.875 Z M 204.78125 -154.875 "/></g></g></g><g fill="#115173" fill-opacity="1"><g transform="translate(58.018349, 333.046049)"><g><path d="M 289.71875 -157.796875 C 289.71875 -107.265625 275.804688 -68.332031 247.984375 -41 C 220.160156 -13.664062 181.054688 0 130.671875 0 L 32.71875 0 L 32.71875 -302.75 L 137.5 -302.75 C 186.09375 -302.75 223.609375 -290.320312 250.046875 -265.46875 C 276.492188 -240.625 289.71875 -204.734375 289.71875 -157.796875 Z M 204.8125 -154.90625 C 204.8125 -182.644531 199.320312 -203.210938 188.34375 -216.609375 C 177.363281 -230.003906 160.691406 -236.703125 138.328125 -236.703125 L 114.515625 -236.703125 L 114.515625 -67.09375 L 132.734375 -67.09375 C 157.585938 -67.09375 175.8125 -74.304688 187.40625 -88.734375 C 199.007812 -103.160156 204.8125 -125.21875 204.8125 -154.90625 Z M 204.8125 -154.90625 "/></g></g></g></svg>